Coordinates
version=1
nRows=6
nColumns=36
inDegrees=yes

Units are S.I. units (second, meters, Newtons, ...)
If the header above contains a line with 'inDegrees', this indicates whether rotational values are in degrees (yes) or radians (no).

endheader
time	pelvis_tilt	pelvis_list	pelvis_rotation	pelvis_tx	pelvis_ty	pelvis_tz	hip_flexion_r	hip_adduction_r	hip_rotation_r	knee_angle_r	knee_angle_r_beta	ankle_angle_r	subtalar_angle_r	mtp_angle_r	hip_flexion_l	hip_adduction_l	hip_rotation_l	knee_angle_l	knee_angle_l_beta	ankle_angle_l	subtalar_angle_l	mtp_angle_l	lumbar_extension	lumbar_bending	lumbar_rotation	arm_flex_r	arm_add_r	arm_rot_r	elbow_flex_r	pro_sup_r	arm_flex_l	arm_add_l	arm_rot_l	elbow_flex_l	pro_sup_l
      0.00000000	      2.83860848	     -0.55884161	      5.53183553	     -0.06546692	      1.24260389	      0.28877034	      0.26334373	      0.89934133	      5.95668634	      4.37777004	      0.07640650	      7.29627956	     -4.51433218	     -7.63042711	     -0.92244076	     -1.97228081	      0.93673805	      6.85727804	      0.11968208	     10.09953482	     -6.85671366	     -7.63042711	     -7.40012162	      0.86682661	     -3.17126099	     29.54186300	      5.70301439	     56.50747069	    120.28955045	     84.58623270	     43.69130563	      1.22787241	     63.12826795	    113.66840044	     83.21296792
      0.01666670	      3.00077311	     -0.64924209	      4.97911488	     -0.06503090	      1.24309998	      0.28683525	     -0.32972957	      0.79868756	      7.46062611	      3.78468047	      0.06605514	      8.77732924	     -3.17780914	     -7.59576291	     -1.66745305	     -2.02380884	     -0.67186452	      5.40795883	      0.09438669	      9.53691827	     -6.84350349	     -7.59576291	     -8.30240454	      1.60557636	     -2.10090276	     34.42939001	      2.98870383	     66.00878099	    124.34701537	     97.69803720	     44.30982351	      0.16782279	     61.19628453	    117.85334717	     99.63752202
      0.03333330	      2.78674785	     -0.77292657	      4.79466830	     -0.07383064	      1.24031810	      0.28351360	      0.22726932	      0.77291903	      7.67883589	      4.22797817	      0.07379214	      8.45376508	     -2.38648000	     -7.57427214	     -1.32316118	     -2.08956322	     -1.70756367	      4.62457786	      0.08071411	      8.94065228	     -6.79245697	     -7.57427214	     -8.51019120	      2.09207408	     -2.69914370	     36.01232742	      5.26773251	     66.37975459	    124.06036823	    100.78979366	     45.00115251	     -0.64849840	     61.07993910	    119.16767129	    105.29443748
      0.05000000	      2.83828154	     -0.71587192	      5.08398876	     -0.07479719	      1.24020944	      0.28252766	      0.54489466	      0.54465469	      6.98639176	      4.70914223	      0.08219004	      8.51821356	     -1.35230257	     -7.53208686	     -1.04084197	     -2.03165557	     -2.43491708	      4.50682895	      0.07865900	      8.77546215	     -6.30368049	     -7.53208686	     -8.87198762	      2.19649577	     -3.14288489	     36.90327625	      6.47618066	     66.78936195	    123.15614706	    100.77351640	     46.04183474	     -0.93154506	     60.63104052	    119.19043150	    106.48726054
      0.06666670	      2.91168453	     -0.68678116	      5.32345637	     -0.07587241	      1.23790531	      0.28227295	      0.94055826	      0.50022871	      6.64777827	      5.31077375	      0.09269049	      8.81167268	     -0.56170647	     -7.52569128	     -0.75515384	     -2.01106408	     -2.54728238	      4.69396026	      0.08192506	      8.70542681	     -6.32653026	     -7.52569128	     -9.38419184	      2.25164956	     -3.45596443	     37.52104457	      7.26816802	     67.10589021	    122.54333402	    100.82650859	     47.07851030	     -0.73478140	     59.69231216	    118.78945051	    106.41561279
      0.08333330	      3.14622947	     -0.63833312	      5.38515864	     -0.07725835	      1.24208706	      0.28206281	      1.09725298	      0.45164993	      6.46265681	      5.97246543	      0.10423919	      8.96148198	     -0.25442549	     -7.52053489	     -0.77676684	     -1.97472404	     -2.83118374	      5.19185426	      0.09061495	      8.38209204	     -6.50755276	     -7.52053489	    -10.03818398	      2.31938833	     -3.42612607	     37.88156564	      7.64590141	     67.63763490	    122.09383965	    100.09754470	     47.72437462	     -0.62856158	     59.53546808	    118.69732408	    105.75011169
